<svg width="38" height="38" viewBox="0 0 38 38" fill="none" xmlns="http://www.w3.org/2000/svg">
<g clip-path="url(#clip0_2362_3549)">
<path d="M18.7967 37.9981H0V0.693206C0.0555385 0.448111 0.261236 0.325563 0.617094 0.325563C12.8561 0.311146 25.0962 0.304967 37.3373 0.307027C37.4183 0.307027 37.496 0.339576 37.5533 0.397514C37.6105 0.455452 37.6427 0.534033 37.6427 0.61597V18.8467C37.6427 19.0547 37.5389 19.1587 37.3311 19.1587L18.9972 19.1309C18.882 19.1309 18.8245 19.1886 18.8245 19.3039L18.7967 37.9981ZM14.5017 14.988C14.5017 14.9669 14.5059 14.946 14.5139 14.9265C14.522 14.907 14.5338 14.8893 14.5487 14.8744C14.5636 14.8595 14.5813 14.8477 14.6008 14.8396C14.6202 14.8315 14.6411 14.8274 14.6622 14.8274H33.1626C33.2052 14.8274 33.246 14.8104 33.2761 14.7803C33.3062 14.7502 33.3231 14.7093 33.3231 14.6667V4.79288C33.3231 4.75027 33.3062 4.70941 33.2761 4.67928C33.246 4.64916 33.2052 4.63223 33.1626 4.63223H4.4801C4.43755 4.63223 4.39674 4.64916 4.36665 4.67928C4.33656 4.70941 4.31966 4.75027 4.31966 4.79288V33.5122C4.31966 33.5548 4.33656 33.5957 4.36665 33.6258C4.39674 33.656 4.43755 33.6729 4.4801 33.6729H14.3413C14.3838 33.6729 14.4246 33.656 14.4547 33.6258C14.4848 33.5957 14.5017 33.5548 14.5017 33.5122V14.988Z" fill="#DBA77B"/>
<path d="M37.6207 37.9998H21.311L21.2739 22.1109C21.2739 21.7916 21.4333 21.632 21.7522 21.632L37.5436 21.6289C37.569 21.6289 37.5933 21.639 37.6112 21.657C37.6292 21.6749 37.6393 21.6993 37.6393 21.7247L37.6207 37.9998ZM33.3227 26.1333C33.3227 26.085 33.3035 26.0386 33.2694 26.0044C33.2352 25.9702 33.1889 25.951 33.1406 25.951H25.7911C25.7428 25.951 25.6965 25.9702 25.6623 26.0044C25.6282 26.0386 25.609 26.085 25.609 26.1333V33.4923C25.609 33.5407 25.6282 33.587 25.6623 33.6212C25.6965 33.6554 25.7428 33.6746 25.7911 33.6746H33.1406C33.1889 33.6746 33.2352 33.6554 33.2694 33.6212C33.3035 33.587 33.3227 33.5407 33.3227 33.4923V26.1333Z" fill="#DBA77B"/>
</g>
<defs>
<clipPath id="clip0_2362_3549">
<rect width="38" height="38" fill="white"/>
</clipPath>
</defs>
</svg>
