<svg width="18" height="18" viewBox="0 0 18 18" fill="none" xmlns="http://www.w3.org/2000/svg">
<g clip-path="url(#clip0_2362_2858)">
<path d="M16.5 8.25V15H15V12.75H3V15H1.5V3H3V10.5H9V5.25H13.5C14.2956 5.25 15.0587 5.56607 15.6213 6.12868C16.1839 6.69129 16.5 7.45435 16.5 8.25ZM6 9.75C5.40326 9.75 4.83097 9.51295 4.40901 9.09099C3.98705 8.66903 3.75 8.09674 3.75 7.5C3.75 6.90326 3.98705 6.33097 4.40901 5.90901C4.83097 5.48705 5.40326 5.25 6 5.25C6.59674 5.25 7.16903 5.48705 7.59099 5.90901C8.01295 6.33097 8.25 6.90326 8.25 7.5C8.25 8.09674 8.01295 8.66903 7.59099 9.09099C7.16903 9.51295 6.59674 9.75 6 9.75Z" fill="white"/>
</g>
<defs>
<clipPath id="clip0_2362_2858">
<rect width="18" height="18" fill="white"/>
</clipPath>
</defs>
</svg>
