<svg width="28" height="28" viewBox="0 0 28 28" fill="none" xmlns="http://www.w3.org/2000/svg">
<path fill-rule="evenodd" clip-rule="evenodd" d="M13.9998 27.3337C7.71444 27.3337 4.57174 27.3337 2.61913 25.381C0.666504 23.4285 0.666504 20.2857 0.666504 14.0003C0.666504 7.71493 0.666504 4.57223 2.61913 2.61962C4.57174 0.666992 7.71444 0.666992 13.9998 0.666992C20.2852 0.666992 23.428 0.666992 25.3805 2.61962C27.3332 4.57223 27.3332 7.71493 27.3332 14.0003C27.3332 20.2857 27.3332 23.4285 25.3805 25.381C23.428 27.3337 20.2852 27.3337 13.9998 27.3337ZM13.9998 9.00033C14.5521 9.00033 14.9998 9.44804 14.9998 10.0003V13.0003H17.9998C18.5521 13.0003 18.9998 13.4481 18.9998 14.0003C18.9998 14.5526 18.5521 15.0003 17.9998 15.0003H14.9998V18.0003C14.9998 18.5526 14.5521 19.0003 13.9998 19.0003C13.4476 19.0003 12.9998 18.5526 12.9998 18.0003V15.0003H9.99984C9.44756 15.0003 8.99984 14.5526 8.99984 14.0003C8.99984 13.4481 9.44756 13.0003 9.99984 13.0003H12.9998V10.0003C12.9998 9.44804 13.4476 9.00033 13.9998 9.00033Z" fill="#DBA77B"/>
</svg>
