<svg width="18" height="18" viewBox="0 0 18 18" fill="none" xmlns="http://www.w3.org/2000/svg">
<path d="M11.9297 1.5C11.9297 1.81066 12.1815 2.0625 12.4922 2.0625H15.142L9.5625 7.64201V6C9.5625 5.68934 9.31066 5.4375 9 5.4375C8.68934 5.4375 8.4375 5.68934 8.4375 6V9C8.4375 9.31066 8.68934 9.5625 9 9.5625H12C12.3107 9.5625 12.5625 9.31066 12.5625 9C12.5625 8.68934 12.3107 8.4375 12 8.4375H10.358L15.9375 2.85799V5.50781C15.9375 5.81847 16.1893 6.07031 16.5 6.07031C16.8107 6.07031 17.0625 5.81847 17.0625 5.50781V1.5C17.0625 1.18934 16.8107 0.9375 16.5 0.9375H12.4922C12.1815 0.9375 11.9297 1.18934 11.9297 1.5Z" fill="white"/>
<path d="M14.8137 5.57276C14.8478 6.47227 15.5859 7.19152 16.4928 7.1953C16.5 7.73987 16.5 8.33904 16.5 9C16.5 12.5355 16.5 14.3033 15.4017 15.4017C14.3033 16.5 12.5355 16.5 9 16.5C5.46447 16.5 3.6967 16.5 2.59835 15.4017C1.5 14.3033 1.5 12.5355 1.5 9C1.5 5.46447 1.5 3.6967 2.59835 2.59835C3.6967 1.5 5.46447 1.5 9 1.5C9.66096 1.5 10.2601 1.5 10.8047 1.50718C10.8085 2.41413 11.5277 3.15223 12.4272 3.18627L10.4601 5.15342C10.1679 4.65058 9.62344 4.3125 9 4.3125C8.06802 4.3125 7.3125 5.06802 7.3125 6V9C7.3125 9.93198 8.06802 10.6875 9 10.6875H12C12.932 10.6875 13.6875 9.93198 13.6875 9C13.6875 8.37656 13.3494 7.83208 12.8466 7.5399L14.8137 5.57276Z" fill="white"/>
</svg>
