<svg width="36" height="37" viewBox="0 0 36 37" fill="none" xmlns="http://www.w3.org/2000/svg">
<path d="M18 0.5625C22.7573 0.5625 27.3198 2.45234 30.6837 5.81627C34.0477 9.18021 35.9375 13.7427 35.9375 18.5C35.9375 23.2573 34.0477 27.8198 30.6837 31.1837C27.3198 34.5477 22.7573 36.4375 18 36.4375C13.2427 36.4375 8.68021 34.5477 5.31627 31.1837C1.95234 27.8198 0.0625 23.2573 0.0625 18.5C0.0625 13.7427 1.95234 9.18021 5.31627 5.81627C8.68021 2.45234 13.2427 0.5625 18 0.5625ZM15.7655 22.0388L11.7808 18.0516C11.638 17.9087 11.4684 17.7954 11.2817 17.7181C11.0951 17.6408 10.8951 17.601 10.693 17.601C10.491 17.601 10.291 17.6408 10.1043 17.7181C9.91769 17.7954 9.7481 17.9087 9.60525 18.0516C9.31675 18.3401 9.15468 18.7313 9.15468 19.1393C9.15468 19.5473 9.31675 19.9386 9.60525 20.2271L14.679 25.3009C14.8214 25.4444 14.9909 25.5584 15.1776 25.6361C15.3643 25.7139 15.5645 25.7539 15.7668 25.7539C15.969 25.7539 16.1693 25.7139 16.356 25.6361C16.5427 25.5584 16.7121 25.4444 16.8546 25.3009L27.3608 14.7921C27.5056 14.6498 27.6207 14.4803 27.6997 14.2933C27.7786 14.1063 27.8197 13.9056 27.8206 13.7026C27.8216 13.4997 27.7823 13.2985 27.7051 13.1108C27.628 12.9231 27.5144 12.7525 27.371 12.6089C27.2275 12.4653 27.0571 12.3515 26.8695 12.2741C26.6819 12.1967 26.4808 12.1573 26.2778 12.158C26.0749 12.1587 25.874 12.1996 25.687 12.2782C25.4999 12.3569 25.3302 12.4719 25.1878 12.6165L15.7655 22.0388Z" fill="#82BB5F"/>
</svg>
