<svg width="20" height="20" viewBox="0 0 20 20" fill="none" xmlns="http://www.w3.org/2000/svg">
<g clip-path="url(#clip0_2362_2075)">
<path d="M13.2914 1.99399L18.0056 6.70816C18.1618 6.86443 18.2496 7.07635 18.2496 7.29732C18.2496 7.51829 18.1618 7.73022 18.0056 7.88649L11.5231 14.369L9.75642 14.9582L8.57726 16.1365C8.42099 16.2927 8.20906 16.3805 7.98809 16.3805C7.76712 16.3805 7.5552 16.2927 7.39893 16.1365L3.86309 12.6007C3.70687 12.4444 3.6191 12.2325 3.6191 12.0115C3.6191 11.7905 3.70687 11.5786 3.86309 11.4223L5.04143 10.244L5.63059 8.47649L12.1131 1.99399C12.2694 1.83776 12.4813 1.75 12.7023 1.75C12.9232 1.75 13.1352 1.83776 13.2914 1.99399ZM13.8806 4.94065L8.57726 10.244L9.75559 11.4223L15.0589 6.11899L13.8806 4.94065ZM3.56809 14.074L5.92559 16.4315L4.74726 17.6098L1.21143 16.4315L3.56809 14.074Z" fill="white"/>
</g>
<defs>
<clipPath id="clip0_2362_2075">
<rect width="20" height="20" fill="white"/>
</clipPath>
</defs>
</svg>
