<svg width="20" height="20" viewBox="0 0 20 20" fill="none" xmlns="http://www.w3.org/2000/svg">
<path d="M0.436267 3.07298C0 3.57489 0 4.43544 0 6.15654L0 15.6505C0 16.8694 0 17.4788 0.314596 17.9376C0.629193 18.3965 1.17921 18.5892 2.27924 18.9746L3.57343 19.4281C4.27436 19.6737 4.81371 19.8627 5.26633 19.9844C5.5616 20.0638 5.83333 19.8295 5.83333 19.5207L5.83333 4.20826C5.83333 3.95667 5.64964 3.74435 5.40837 3.6825C5.01914 3.58271 4.55127 3.41877 3.91002 3.19407C2.35676 2.64981 1.58014 2.37768 0.989215 2.65403C0.779412 2.75215 0.59116 2.89478 0.436267 3.07298Z" fill="white"/>
<path d="M10.6204 1.38924L9.08441 2.46565C8.52874 2.85506 8.12152 3.14044 7.77375 3.34391C7.60895 3.44034 7.5 3.61478 7.5 3.80725L7.5 19.0154C7.5 19.3899 7.88398 19.6238 8.19616 19.422C8.53123 19.2053 8.9149 18.9364 9.37961 18.6108L10.9156 17.5344C11.4712 17.145 11.8785 16.8596 12.2262 16.6561C12.3911 16.5597 12.5 16.3852 12.5 16.1927L12.5 0.984626C12.5 0.610064 12.116 0.376204 11.8038 0.578046C11.4688 0.794685 11.0851 1.06356 10.6204 1.38924Z" fill="white"/>
<path d="M17.7208 1.02536L16.4266 0.571873C15.7256 0.326242 15.1863 0.13729 14.7337 0.0155938C14.4384 -0.0637919 14.1667 0.170457 14.1667 0.479275L14.1667 15.7917C14.1667 16.0433 14.3504 16.2556 14.5916 16.3175C14.9809 16.4173 15.4488 16.5812 16.09 16.8059C17.6432 17.3502 18.4199 17.6223 19.0108 17.346C19.2206 17.2478 19.4088 17.1052 19.5637 16.927C20 16.4251 20 15.5646 20 13.8435L20 4.34954C20 3.13064 20 2.52119 19.6854 2.06236C19.3708 1.60353 18.8208 1.41081 17.7208 1.02536Z" fill="white"/>
</svg>
