<svg width="16" height="16" viewBox="0 0 16 16" fill="none" xmlns="http://www.w3.org/2000/svg">
<path d="M2 4.25699C2 3.93402 2.23025 3.6722 2.51429 3.6722L4.29045 3.67189C4.64335 3.66172 4.95468 3.40656 5.07476 3.02909C5.07792 3.01916 5.08155 3.00692 5.09457 2.9625L5.1711 2.70138C5.21793 2.54128 5.25874 2.4018 5.31583 2.27712C5.54139 1.78458 5.95872 1.44255 6.44098 1.35499C6.56305 1.33282 6.69232 1.33291 6.84071 1.33302H9.15941C9.30779 1.33291 9.43707 1.33282 9.55914 1.35499C10.0414 1.44255 10.4587 1.78458 10.6843 2.27712C10.7414 2.4018 10.7822 2.54128 10.829 2.70138L10.9055 2.9625C10.9186 3.00692 10.9222 3.01916 10.9254 3.02909C11.0454 3.40656 11.4185 3.66203 11.7714 3.6722H13.4857C13.7697 3.6722 14 3.93402 14 4.25699C14 4.57996 13.7697 4.84178 13.4857 4.84178H2.51429C2.23025 4.84178 2 4.57996 2 4.25699Z" fill="#FF5959"/>
<path fill-rule="evenodd" clip-rule="evenodd" d="M7.7304 14.6664H8.2696C10.1247 14.6664 11.0523 14.6664 11.6554 14.0758C12.2585 13.4852 12.3202 12.5164 12.4436 10.5788L12.6214 7.78683C12.6884 6.7355 12.7219 6.20984 12.4193 5.87673C12.1167 5.54362 11.6058 5.54362 10.584 5.54362H5.41603C4.39418 5.54362 3.88325 5.54362 3.5807 5.87673C3.27815 6.20984 3.31163 6.7355 3.37858 7.78683L3.55639 10.5788C3.6798 12.5164 3.7415 13.4852 4.34459 14.0758C4.94769 14.6664 5.87526 14.6664 7.7304 14.6664ZM6.83085 8.12541C6.80337 7.83618 6.55835 7.62515 6.28358 7.65408C6.00881 7.683 5.80834 7.94092 5.83581 8.23015L6.16915 11.7389C6.19662 12.0282 6.44165 12.2392 6.71642 12.2103C6.99119 12.1813 7.19166 11.9234 7.16419 11.6342L6.83085 8.12541ZM9.71642 7.65408C9.99119 7.683 10.1917 7.94092 10.1642 8.23015L9.83085 11.7389C9.80338 12.0282 9.55835 12.2392 9.28358 12.2103C9.00881 12.1813 8.80834 11.9234 8.83581 11.6342L9.16915 8.12541C9.19663 7.83618 9.44165 7.62515 9.71642 7.65408Z" fill="#FF5959"/>
</svg>
